<?xml version="1.0" standalone="no"?>
<!DOCTYPE svg PUBLIC "-//W3C//DTD SVG 20010904//EN"
 "http://www.w3.org/TR/2001/REC-SVG-20010904/DTD/svg10.dtd">
<svg version="1.0" xmlns="http://www.w3.org/2000/svg"
 width="700.000000pt" height="700.000000pt" viewBox="0 0 700.000000 700.000000"
 preserveAspectRatio="xMidYMid meet">
<metadata>
Created by potrace 1.11, written by Peter Selinger 2001-2013
</metadata>
<g transform="translate(0.000000,700.000000) scale(0.100000,-0.100000)"
fill="#000000" stroke="none">
<path d="M5027 6954 c-147 -47 -320 -233 -446 -482 -75 -146 -144 -351 -166
-493 -3 -19 -8 -50 -11 -69 -2 -19 -7 -46 -9 -60 -2 -14 -7 -65 -10 -115 -3
-49 -8 -103 -11 -120 -4 -29 -5 -513 -1 -625 l2 -55 -70 5 c-186 12 -702 3
-805 -15 -14 -2 -41 -6 -60 -9 -19 -3 -53 -8 -75 -11 -22 -3 -48 -8 -57 -11
-10 -3 -30 -7 -45 -10 -174 -31 -442 -145 -597 -255 -106 -76 -254 -217 -325
-312 -202 -270 -309 -605 -338 -1062 -9 -140 -9 -425 0 -577 l8 -118 -65 6
c-93 9 -544 9 -651 1 -164 -13 -212 -19 -390 -53 -111 -21 -269 -73 -390 -129
-168 -76 -391 -243 -450 -335 -88 -138 -11 -338 148 -381 52 -14 152 -5 185
17 l25 16 635 -635 635 -635 -20 -49 c-83 -200 112 -406 319 -337 92 30 219
178 321 373 28 53 59 119 69 146 62 164 80 222 125 410 2 11 6 36 9 55 3 19 9
55 14 80 9 44 12 65 27 185 8 62 10 515 3 640 l-4 70 385 2 c211 0 398 3 414
6 17 2 57 7 90 11 33 4 67 9 75 11 8 2 33 6 55 10 231 34 516 146 700 276 89
64 243 209 301 284 156 203 253 423 309 700 52 256 66 508 54 945 l-4 135 100
-4 c252 -11 560 -6 765 13 126 12 327 58 468 107 344 118 674 389 699 573 16
123 -14 198 -99 246 -36 21 -56 25 -123 25 -79 0 -111 -10 -183 -56 -21 -13
-42 6 -658 623 l-637 636 19 28 c54 79 76 188 52 256 -37 105 -184 163 -311
122z m1298 -1858 c-66 -50 -248 -123 -385 -155 l-85 -20 -462 462 c-255 254
-465 470 -468 479 -8 23 36 195 73 284 16 39 46 101 66 139 l38 68 621 -621
c590 -591 621 -622 602 -636z m-1108 105 c167 -167 301 -306 299 -309 -10 -10
-603 1 -612 12 -8 7 -17 186 -19 384 -3 221 -2 242 12 230 9 -7 153 -150 320
-317z m-965 -775 c83 -3 153 -7 154 -9 13 -13 27 -687 15 -687 -3 0 -163 157
-356 350 l-349 349 84 3 c106 4 256 2 452 -6z m123 -1046 c-23 -126 -113 -339
-180 -425 -15 -19 -44 9 -640 605 l-625 625 27 20 c79 60 235 129 368 165 l70
18 492 -491 c432 -431 492 -495 488 -517z m-995 -4 c341 -341 619 -620 617
-621 -1 -1 -24 -16 -50 -34 -89 -61 -284 -138 -387 -155 -36 -5 -37 -4 -522
482 l-487 488 19 69 c11 39 28 93 36 120 31 94 130 278 147 272 4 -1 286 -281
627 -621z m-202 -857 c-24 -5 -458 -2 -543 5 -27 2 -63 5 -80 5 -29 1 -30 3
-33 54 -7 148 -14 598 -9 610 4 10 117 -97 347 -327 299 -299 338 -342 318
-347z m-1166 -472 c10 -2 20 -5 23 -8 12 -12 27 -550 15 -568 -3 -5 -140 126
-305 291 l-300 300 275 -6 c151 -3 283 -7 292 -9z m-441 -471 c325 -326 449
-456 449 -472 0 -71 -61 -267 -122 -392 l-41 -84 -614 614 c-337 337 -613 616
-613 619 0 11 168 88 250 113 94 29 208 56 228 53 7 -1 216 -204 463 -451z"/>
</g>
</svg>
